# xmcd CD database file
# Copyright (C) 1993-1998 Ti Kan
#
# Track frame offsets:
#  182
#  14422
#  25577
#  37157
#  48300
#  60365
#  72015
#  83877
#  96912
#  108352
#  117625
#  132335
#  142940
#  153670
#  166357
#  177967
#  189467
#  201302
#
# Disc length: 2830 seconds
#
# Revision: 1
# Processed by: cddbd v1.4b41PL1 Copyright (c) Steve Scherf et al.
# Submitted via: CDWizzard Release:4.35
#
DISCID=f80b0c12
DTITLE=Patsy Cline - Portrait of Patsy Cline
DYEAR=1900
DGENRE=
TTITLE0=A Church, A Courtroom and Then Goodbye
TTITLE1=Honky Tonk Merry-Go Round
TTITLE2=Hidin' Out
TTITLE3=I Cried all the Way to the Altar
TTITLE4=I've Loved and Lost Again
TTITLE5=Dear God
TTITLE6=Walkin' After Midnight
TTITLE7=Fingerprints
TTITLE8=A Stranger in my Arms
TTITLE9=Try Again
TTITLE10=Then You'll Know
TTITLE11=Three Cigarettes (in the Ashtray)
TTITLE12=He'll do For You
TTITLE13=A Poor Man's Roses
TTITLE14=Hungry For Love
TTITLE15=I Can't Forget
TTITLE16=The Wonderful Someone
TTITLE17=Stop the Worls (And let Me Off)
EXTD=
EXTT0=
EXTT1=
EXTT2=
EXTT3=
EXTT4=
EXTT5=
EXTT6=
EXTT7=
EXTT8=
EXTT9=
EXTT10=
EXTT11=
EXTT12=
EXTT13=
EXTT14=
EXTT15=
EXTT16=
EXTT17=
PLAYORDER=
